PathFileType	4	(X/Y/Z)	C:/Users/beibeiliu/ov580/test_trc\sequence.22_training_dense_left.trc
DataRate	CameraRate	NumFrames	NumMarkers	Units	OrigDataRate	OrigDataStartFrame	OrigNumFrames
120	120	8	19	mm	120	284	324
Frame#	Time	ThumbCMC			ThumbMCP			ThumbIP			ThumbTip			IndexMCP			IndexPIP			IndexTip			MiddleMCP			MiddlePIP			MiddleTip			RingMCP			RingPIP			RingTip			PinkyMCP			PinkyPIP			PinkyTip			BackHand1			BackHand2			BackHand3	
		X0	Y0	Z0	X1	Y1	Z1	X2	Y2	Z2	X3	Y3	Z3	X4	Y4	Z4	X5	Y5	Z5	X6	Y6	Z6	X7	Y7	Z7	X8	Y8	Z8	X9	Y9	Z9	X10	Y10	Z10	X11	Y11	Z11	X12	Y12	Z12	X13	Y13	Z13	X14	Y14	Z14	X15	Y15	Z15	X16	Y16	Z16	X17	Y17	Z17	X18	Y18	Z18	
283	2.35833	-187.293	35.6036	24.9147	-180.617	37.5651	-7.88353	-176.839	42.7665	-27.8614	-173.328	47.2529	-48.2226	-175.427	89.0886	-7.12359	-172.805	91.2423	-29.9838	-173.285	89.3363	-57.2159	-196.472	85.9639	-20.3125	-200.59	64.018	-35.8178	-204.721	44.0708	-10.7869	-217.383	79.4407	-20.1766	-215.078	52.1342	-26.0243	-214.538	43.0283	0.862008	-232.458	74.0249	-16.8014	-227.388	51.3836	-20.185	-220.138	44.7058	4.51361	-226.981	76.1317	31.1849	-227.359	53.7224	48.8574	-198.848	61.7406	43.6193	
284	2.36667	-189.837	32.005	24.2379	-182.401	31.5308	-6.33269	-176.52	38.3413	-28.0412	-177.342	48.0083	-48.5023	-177.426	86.5923	-6.23696	-174.836	90.0443	-36.4514	-171.691	86.2832	-58.7711	-197.579	84.4334	-18.1109	-199.719	62.9284	-37.7956	-203.274	41.5193	-11.8945	-214.979	76.2473	-20.465	-214.331	51.4422	-27.8192	-212.719	40.4506	-1.11395	-229.179	72.8135	-17.5474	-225.967	51.674	-22.3235	-223.463	44.5597	7.24804	-222.531	73.7772	28.5879	-233.682	52.3141	49.8653	-198.939	57.1083	42.6156	
285	2.375	-189.635	30.8027	22.8579	-179.925	28.4352	-7.76644	-178.694	35.7787	-28.2166	-173.171	39.577	-49.1946	-176.774	85.04	-11.7217	-169.444	85.8538	-36.8669	-170.495	84.3664	-57.9912	-198.833	81.9106	-22.6612	-199.999	56.7986	-37.1741	-203.383	39.254	-11.517	-216.65	75.4718	-19.1522	-213.129	49.0757	-27.4903	-216.61	38.3259	-0.465482	-229.702	71.9632	-17.1503	-227.621	47.6066	-21.3753	-222.682	42.6304	2.7475	-223.531	71.8785	30.3628	-230.705	53.3246	45.555	-201.372	53.9147	42.7619	
286	2.38333	-189.146	30.1949	20.835	-182.279	25.2174	-6.94993	-176.422	33.9489	-30.9304	-174.677	40.6223	-49.6883	-173.808	82.1589	-13.5977	-170.27	83.5792	-36.0114	-172.227	82.3942	-57.2816	-197.608	80.2794	-19.3248	-201.053	57.9127	-39.0288	-205.567	38.6869	-10.4758	-211.481	72.0562	-23.5306	-215.581	44.9688	-27.2418	-216.057	37.5474	1.39685	-232.412	70.7993	-17.5992	-225.742	47.8769	-23.0896	-221.214	40.7707	4.08903	-222.396	71.5499	26.1801	-225.829	50.4069	46.8	-198.81	51.0983	41.5635	
287	2.39167	-187.786	25.8838	22.5166	-182.07	27.9355	-9.23479	-174.237	31.5975	-32.0824	-173.1	38.3879	-52.48	-171.636	79.8489	-14.483	-170.986	82.5469	-35.5648	-169.513	78.2996	-63.0873	-195.906	78.409	-20.575	-199.7	51.1915	-38.704	-204.074	36.7479	-12.0395	-212.977	70.2922	-21.9889	-212.755	45.1526	-28.8698	-213.355	35.2389	0.0658063	-231.127	69.1826	-17.1443	-225.208	45.4387	-21.5279	-219.327	40.6071	1.4186	-221.745	72.1238	26.7698	-228.767	48.5462	48.4372	-197.667	50.9472	40.7404	
288	2.4	-188.396	26.1284	21.4535	-178.64	22.5237	-9.36423	-174.237	31.6355	-32.3867	-173.758	35.6972	-48.7881	-174.471	79.6839	-13.3352	-168.974	80.8836	-36.1464	-169.198	78.1946	-60.4719	-196.911	76.7602	-24.8711	-201.493	52.8875	-39.1648	-202.966	34.7003	-9.84482	-216.253	70.88	-23.0488	-211.074	45.1772	-28.5237	-211.194	34.8965	-3.30395	-230.493	68.2092	-18.799	-224.111	43.0715	-20.5558	-218.138	38.5676	4.91671	-222.806	68.7642	28.6326	-227.242	47.5947	45.6466	-198.506	54.0032	37.644	
289	2.40833	-186.449	24.7093	22.4259	-178.568	22.9304	-8.89357	-173.318	32.2779	-33.1146	-169.611	34.186	-50.6011	-172.349	77.1149	-11.0877	-171.759	80.7848	-39.3248	-171.654	78.4989	-61.3942	-195.43	76.6445	-21.2759	-199.528	54.8484	-41.299	-203.048	35.3962	-9.04613	-211.142	69.1894	-25.0185	-209.592	43.2155	-28.34	-214.395	34.5018	-0.507095	-229.792	67.772	-18.1517	-223.462	45.7841	-25.1045	-217.32	38.6409	3.4983	-220.788	69.3391	24.4422	-227.008	49.8392	46.6174	-200.728	53.633	39.8306	
290	2.41667	-184.854	25.1824	21.0286	-176.418	25.841	-11.4069	-171.67	33.3518	-34.5788	-171.244	39.0274	-53.2491	-172.219	77.6472	-11.5004	-171.11	81.5813	-40.4336	-169.295	78.8449	-59.9876	-194.423	76.2551	-26.4079	-199.28	52.4023	-40.3797	-198.899	34.7927	-12.0439	-211.1	68.8137	-25.8095	-210.921	42.9223	-29.239	-212.29	35.051	-0.824999	-230.154	69.1464	-18.5563	-224.8	41.8329	-22.8584	-220.994	37.6923	0.656644	-218.766	67.3628	28.0459	-226.654	50.5055	45.3118	-199.669	55.4581	35.4938	
